<?xml version="1.0" encoding="UTF-8"?>
<svg id="Layer_1" data-name="Layer 1" xmlns="http://www.w3.org/2000/svg" xmlns:xlink="http://www.w3.org/1999/xlink" viewBox="0 0 922.67 327.26">
  <defs>
    <style>
      .cls-1 {
        clip-path: url(#clippath);
      }

      .cls-2 {
        fill: none;
      }

      .cls-2, .cls-3, .cls-4, .cls-5 {
        stroke-width: 0px;
      }

      .cls-6 {
        clip-path: url(#clippath-1);
      }

      .cls-7 {
        clip-path: url(#clippath-4);
      }

      .cls-8 {
        clip-path: url(#clippath-3);
      }

      .cls-9 {
        clip-path: url(#clippath-2);
      }

      .cls-10 {
        clip-path: url(#clippath-7);
      }

      .cls-11 {
        clip-path: url(#clippath-8);
      }

      .cls-12 {
        clip-path: url(#clippath-6);
      }

      .cls-13 {
        clip-path: url(#clippath-5);
      }

      .cls-14 {
        clip-path: url(#clippath-9);
      }

      .cls-15 {
        clip-path: url(#clippath-21);
      }

      .cls-16 {
        clip-path: url(#clippath-24);
      }

      .cls-17 {
        clip-path: url(#clippath-23);
      }

      .cls-18 {
        clip-path: url(#clippath-22);
      }

      .cls-19 {
        clip-path: url(#clippath-25);
      }

      .cls-20 {
        clip-path: url(#clippath-27);
      }

      .cls-21 {
        clip-path: url(#clippath-28);
      }

      .cls-22 {
        clip-path: url(#clippath-26);
      }

      .cls-23 {
        clip-path: url(#clippath-29);
      }

      .cls-24 {
        clip-path: url(#clippath-34);
      }

      .cls-25 {
        clip-path: url(#clippath-35);
      }

      .cls-26 {
        clip-path: url(#clippath-36);
      }

      .cls-27 {
        clip-path: url(#clippath-37);
      }

      .cls-28 {
        clip-path: url(#clippath-33);
      }

      .cls-29 {
        clip-path: url(#clippath-32);
      }

      .cls-30 {
        clip-path: url(#clippath-30);
      }

      .cls-31 {
        clip-path: url(#clippath-31);
      }

      .cls-32 {
        clip-path: url(#clippath-12);
      }

      .cls-33 {
        clip-path: url(#clippath-10);
      }

      .cls-34 {
        clip-path: url(#clippath-15);
      }

      .cls-35 {
        clip-path: url(#clippath-17);
      }

      .cls-36 {
        clip-path: url(#clippath-16);
      }

      .cls-37 {
        clip-path: url(#clippath-11);
      }

      .cls-38 {
        clip-path: url(#clippath-18);
      }

      .cls-3 {
        fill: #e44e8c;
      }

      .cls-4 {
        fill: #fff;
      }

      .cls-5 {
        fill: #eea3b6;
      }
    </style>
    <clipPath id="clippath">
      <rect class="cls-2" width="922.67" height="206.67"/>
    </clipPath>
    <clipPath id="clippath-1">
      <rect class="cls-2" x="4.45" y="22.04" width="913.78" height="162" transform="translate(-4.44 22.4) rotate(-2.77)"/>
    </clipPath>
    <clipPath id="clippath-2">
      <rect class="cls-2" x="4.45" y="22.04" width="913.77" height="162" transform="translate(-4.44 22.4) rotate(-2.77)"/>
    </clipPath>
    <clipPath id="clippath-3">
      <rect class="cls-2" x="56" y="78.67" width="65.33" height="64"/>
    </clipPath>
    <clipPath id="clippath-4">
      <rect class="cls-2" x="4.45" y="22.03" width="914" height="162" transform="translate(-4.44 22.41) rotate(-2.77)"/>
    </clipPath>
    <clipPath id="clippath-5">
      <rect class="cls-2" x="118.67" y="76" width="46.67" height="64"/>
    </clipPath>
    <clipPath id="clippath-6">
      <rect class="cls-2" x="4.45" y="22.03" width="914" height="162" transform="translate(-4.44 22.41) rotate(-2.77)"/>
    </clipPath>
    <clipPath id="clippath-7">
      <rect class="cls-2" x="168" y="74.67" width="38.67" height="62.67"/>
    </clipPath>
    <clipPath id="clippath-8">
      <rect class="cls-2" x="4.45" y="22.03" width="914" height="162" transform="translate(-4.44 22.41) rotate(-2.77)"/>
    </clipPath>
    <clipPath id="clippath-9">
      <rect class="cls-2" x="205.33" y="70.67" width="65.33" height="65.33"/>
    </clipPath>
    <clipPath id="clippath-10">
      <rect class="cls-2" x="4.45" y="22.03" width="914" height="162" transform="translate(-4.44 22.41) rotate(-2.77)"/>
    </clipPath>
    <clipPath id="clippath-11">
      <rect class="cls-2" x="268" y="68" width="50.67" height="65.33"/>
    </clipPath>
    <clipPath id="clippath-12">
      <rect class="cls-2" x="4.45" y="22.03" width="914" height="162" transform="translate(-4.44 22.41) rotate(-2.77)"/>
    </clipPath>
    <clipPath id="clippath-13">
      <rect class="cls-2" x="321.33" y="129.33" width="1.33" height="1.33"/>
    </clipPath>
    <clipPath id="clippath-15">
      <rect class="cls-2" x="342.67" y="64" width="64" height="66.67"/>
    </clipPath>
    <clipPath id="clippath-16">
      <rect class="cls-2" x="4.45" y="22.03" width="914" height="162" transform="translate(-4.44 22.41) rotate(-2.77)"/>
    </clipPath>
    <clipPath id="clippath-17">
      <rect class="cls-2" x="410.67" y="62.67" width="40" height="62.67"/>
    </clipPath>
    <clipPath id="clippath-18">
      <rect class="cls-2" x="4.45" y="22.03" width="914" height="162" transform="translate(-4.44 22.41) rotate(-2.77)"/>
    </clipPath>
    <clipPath id="clippath-19">
      <rect class="cls-2" x="453.33" y="122.67" width="1.33" height="1.33"/>
    </clipPath>
    <clipPath id="clippath-21">
      <rect class="cls-2" x="477.33" y="58.67" width="52" height="64"/>
    </clipPath>
    <clipPath id="clippath-22">
      <rect class="cls-2" x="4.45" y="22.03" width="914" height="162" transform="translate(-4.44 22.41) rotate(-2.77)"/>
    </clipPath>
    <clipPath id="clippath-23">
      <rect class="cls-2" x="533.33" y="57.33" width="18.67" height="62.67"/>
    </clipPath>
    <clipPath id="clippath-24">
      <rect class="cls-2" x="4.45" y="22.03" width="914" height="162" transform="translate(-4.44 22.41) rotate(-2.77)"/>
    </clipPath>
    <clipPath id="clippath-25">
      <rect class="cls-2" x="556" y="53.33" width="49.33" height="66.67"/>
    </clipPath>
    <clipPath id="clippath-26">
      <rect class="cls-2" x="4.45" y="22.03" width="914" height="162" transform="translate(-4.44 22.41) rotate(-2.77)"/>
    </clipPath>
    <clipPath id="clippath-27">
      <rect class="cls-2" x="602.67" y="52" width="66.67" height="65.33"/>
    </clipPath>
    <clipPath id="clippath-28">
      <rect class="cls-2" x="4.45" y="22.03" width="914" height="162" transform="translate(-4.44 22.41) rotate(-2.77)"/>
    </clipPath>
    <clipPath id="clippath-29">
      <rect class="cls-2" x="666.67" y="48" width="49.33" height="66.67"/>
    </clipPath>
    <clipPath id="clippath-30">
      <rect class="cls-2" x="4.45" y="22.03" width="914" height="162" transform="translate(-4.44 22.41) rotate(-2.77)"/>
    </clipPath>
    <clipPath id="clippath-31">
      <rect class="cls-2" x="717.33" y="48" width="46.67" height="62.67"/>
    </clipPath>
    <clipPath id="clippath-32">
      <rect class="cls-2" x="4.45" y="22.03" width="914" height="162" transform="translate(-4.44 22.41) rotate(-2.77)"/>
    </clipPath>
    <clipPath id="clippath-33">
      <rect class="cls-2" x="766.67" y="45.33" width="38.67" height="64"/>
    </clipPath>
    <clipPath id="clippath-34">
      <rect class="cls-2" x="4.45" y="22.03" width="914" height="162" transform="translate(-4.44 22.41) rotate(-2.77)"/>
    </clipPath>
    <clipPath id="clippath-35">
      <rect class="cls-2" x="810.67" y="42.67" width="54.67" height="64"/>
    </clipPath>
    <clipPath id="clippath-36">
      <rect class="cls-2" x="4.45" y="22.03" width="914" height="162" transform="translate(-4.44 22.41) rotate(-2.77)"/>
    </clipPath>
    <clipPath id="clippath-37">
      <rect class="cls-2" x="65.24" y="182.38" width="777.73" height="144.88"/>
    </clipPath>
  </defs>
  <g class="cls-1">
    <g class="cls-6">
      <g class="cls-9">
        <path class="cls-3" d="m1.07,44.2L913.79.07l7.82,161.81L8.9,206.01,1.07,44.2Z"/>
      </g>
    </g>
  </g>
  <g class="cls-8">
    <g class="cls-7">
      <path class="cls-4" d="m93.93,80.26l27.31,59.25-14.81.71-5.04-11.85-23,1.1-3.9,12.29-14.79.73,21.5-61.63,12.73-.6Zm2.19,36.23l-7.6-17.25-.15.02-5.88,17.88,13.63-.65Z"/>
    </g>
  </g>
  <g class="cls-13">
    <g class="cls-12">
      <path class="cls-4" d="m119.63,91.15l-.58-12.1,42.5-2.06.58,12.1-14.38.69,2.33,48.33-13.77.67-2.33-48.33-14.35.71Z"/>
    </g>
  </g>
  <g class="cls-10">
    <g class="cls-11">
      <path class="cls-4" d="m182.48,75.97l2.33,48.35,20.81-1,.58,12.08-34.58,1.67-2.92-60.44,13.77-.67Z"/>
    </g>
  </g>
  <g class="cls-14">
    <g class="cls-33">
      <path class="cls-4" d="m242.98,73.05l27.31,59.25-14.81.71-5.04-11.85-23,1.1-3.9,12.29-14.79.73,21.5-61.63,12.73-.6Zm2.19,36.23l-7.6-17.25-.15.02-5.88,17.88,13.63-.65Z"/>
    </g>
  </g>
  <g class="cls-37">
    <g class="cls-32">
      <path class="cls-4" d="m294.1,69.46c3.28-.15,6.51.18,9.69.98,3.18.79,5.55,1.62,7.1,2.48l2.25,1.38-5.02,11.27c-.46-.28-1.09-.63-1.9-1.06-.79-.43-2.29-.98-4.48-1.67-2.2-.68-4.22-.97-6.08-.88-2.28.11-4.02.69-5.23,1.73-1.2,1.04-1.75,2.39-1.67,4.04.04.82.38,1.57,1,2.25.63.68,1.66,1.4,3.1,2.15,1.46.74,2.73,1.32,3.83,1.75,1.09.43,2.79,1.08,5.08,1.94,3.98,1.49,7.42,3.59,10.31,6.31,2.9,2.72,4.44,5.89,4.6,9.5.17,3.47-.31,6.54-1.44,9.19-1.11,2.64-2.72,4.74-4.81,6.31-2.1,1.57-4.45,2.78-7.06,3.63-2.6.83-5.43,1.32-8.5,1.46-2.64.14-5.24,0-7.81-.42-2.57-.43-4.73-1.01-6.48-1.73-1.74-.72-3.31-1.44-4.73-2.15-1.41-.71-2.43-1.32-3.08-1.83l-1-.77,6.33-11.9c.59.46,1.42,1.04,2.48,1.75,1.07.71,2.94,1.64,5.63,2.79,2.68,1.14,5.02,1.66,7.02,1.56,5.8-.28,8.61-2.4,8.42-6.35-.04-.83-.29-1.59-.75-2.29-.45-.69-1.21-1.36-2.29-2.02-1.08-.65-2.04-1.17-2.85-1.54-.82-.39-2.17-.96-4.04-1.71-1.88-.76-3.27-1.34-4.17-1.75-3.75-1.63-6.7-3.74-8.83-6.35-2.13-2.61-3.27-5.48-3.42-8.63-.27-5.4,1.52-9.92,5.35-13.56,3.84-3.65,8.32-5.6,13.44-5.85Z"/>
    </g>
  </g>
  <g class="cls-34">
    <g class="cls-36">
      <path class="cls-4" d="m344.27,98.4c-.43-8.75,2.19-16.29,7.85-22.63,5.67-6.34,12.69-9.73,21.08-10.15,8.44-.4,15.76,2.27,21.96,8.02,6.21,5.75,9.53,13.02,9.96,21.81.43,8.83-2.12,16.41-7.65,22.73-5.52,6.31-12.59,9.67-21.23,10.08-8.83.43-16.27-2.21-22.29-7.92-6.03-5.71-9.26-13.03-9.69-21.96Zm14.88-.71c.15,3.17.78,6.04,1.88,8.6,1.09,2.57,2.91,4.7,5.44,6.4,2.53,1.68,5.57,2.43,9.15,2.25,5.14-.23,8.92-2.18,11.35-5.83,2.44-3.65,3.55-7.96,3.31-12.94-.24-4.93-1.77-9.09-4.6-12.5-2.83-3.42-6.77-5.01-11.81-4.77-4.97.25-8.73,2.22-11.27,5.9-2.53,3.67-3.68,7.97-3.44,12.9Z"/>
    </g>
  </g>
  <g class="cls-35">
    <g class="cls-38">
      <path class="cls-4" d="m446.89,63.19l.58,12.1-21.17,1.02.58,12,19.56-.96.58,12.08-19.56.96,1.17,24.25-13.77.67-2.92-60.44,34.94-1.69Z"/>
    </g>
  </g>
  <g class="cls-15">
    <g class="cls-18">
      <path class="cls-4" d="m477.87,61.69l17.5-.85c8.4-.4,15.72,2.12,21.96,7.56,6.23,5.45,9.56,12.49,9.98,21.15.42,8.7-2.21,16.06-7.88,22.08-5.66,6.03-12.7,9.24-21.15,9.65l-17.5.85-2.92-60.44Zm16.08,47.48l2.13-.1c5.03-.25,9.06-2.15,12.1-5.71,3.04-3.55,4.46-7.89,4.25-13-.25-5.14-2.06-9.34-5.44-12.6-3.36-3.26-7.58-4.77-12.65-4.52l-2.13.1,1.73,35.83Z"/>
    </g>
  </g>
  <g class="cls-17">
    <g class="cls-16">
      <path class="cls-4" d="m547.89,58.3l2.92,60.44-13.77.67-2.92-60.44,13.77-.67Z"/>
    </g>
  </g>
  <g class="cls-19">
    <g class="cls-22">
      <path class="cls-4" d="m581.06,55.59c3.28-.15,6.51.18,9.69.98,3.18.79,5.55,1.62,7.1,2.48l2.25,1.38-5.02,11.27c-.46-.28-1.09-.63-1.9-1.06-.79-.43-2.29-.98-4.48-1.67-2.2-.68-4.22-.97-6.08-.88-2.28.11-4.02.69-5.23,1.73-1.2,1.04-1.75,2.39-1.67,4.04.04.82.38,1.57,1,2.25.63.68,1.66,1.4,3.1,2.15,1.46.74,2.73,1.32,3.83,1.75,1.09.43,2.79,1.08,5.08,1.94,3.98,1.49,7.42,3.59,10.31,6.31,2.9,2.72,4.44,5.89,4.6,9.5.17,3.47-.31,6.54-1.44,9.19-1.11,2.64-2.72,4.74-4.81,6.31-2.1,1.57-4.45,2.78-7.06,3.63-2.6.83-5.43,1.32-8.5,1.46-2.64.14-5.24,0-7.81-.42-2.57-.43-4.73-1.01-6.48-1.73-1.74-.72-3.31-1.44-4.73-2.15-1.41-.71-2.43-1.32-3.08-1.83l-1-.77,6.33-11.9c.59.46,1.42,1.04,2.48,1.75,1.07.71,2.94,1.64,5.63,2.79,2.68,1.14,5.02,1.66,7.02,1.56,5.8-.28,8.61-2.4,8.42-6.35-.04-.83-.29-1.59-.75-2.29-.45-.69-1.21-1.36-2.29-2.02-1.08-.65-2.04-1.17-2.85-1.54-.82-.39-2.17-.96-4.04-1.71-1.88-.76-3.27-1.34-4.17-1.75-3.75-1.63-6.7-3.74-8.83-6.35-2.13-2.61-3.27-5.48-3.42-8.63-.27-5.4,1.52-9.92,5.35-13.56,3.84-3.65,8.32-5.6,13.44-5.85Z"/>
    </g>
  </g>
  <g class="cls-20">
    <g class="cls-21">
      <path class="cls-4" d="m640.98,53.81l27.31,59.25-14.81.71-5.04-11.85-23,1.1-3.9,12.29-14.79.73,21.5-61.63,12.73-.6Zm2.19,36.23l-7.6-17.25-.15.02-5.88,17.88,13.63-.65Z"/>
    </g>
  </g>
  <g class="cls-23">
    <g class="cls-30">
      <path class="cls-4" d="m692.1,50.22c3.28-.15,6.51.18,9.69.98,3.18.79,5.55,1.62,7.1,2.48l2.25,1.38-5.02,11.27c-.46-.28-1.09-.63-1.9-1.06-.79-.43-2.29-.98-4.48-1.67-2.2-.68-4.22-.97-6.08-.88-2.28.11-4.02.69-5.23,1.73-1.2,1.04-1.75,2.39-1.67,4.04.04.82.38,1.57,1,2.25.63.68,1.66,1.4,3.1,2.15,1.46.74,2.73,1.32,3.83,1.75,1.09.43,2.79,1.08,5.08,1.94,3.98,1.49,7.42,3.59,10.31,6.31,2.9,2.72,4.44,5.89,4.6,9.5.17,3.47-.31,6.54-1.44,9.19-1.11,2.64-2.72,4.74-4.81,6.31-2.1,1.57-4.45,2.78-7.06,3.63-2.6.83-5.43,1.32-8.5,1.46-2.64.14-5.24,0-7.81-.42-2.57-.43-4.73-1.01-6.48-1.73-1.74-.72-3.31-1.44-4.73-2.15-1.41-.71-2.43-1.32-3.08-1.83l-1-.77,6.33-11.9c.59.46,1.42,1.04,2.48,1.75,1.07.71,2.94,1.64,5.63,2.79,2.68,1.14,5.02,1.66,7.02,1.56,5.8-.28,8.61-2.4,8.42-6.35-.04-.83-.29-1.59-.75-2.29-.45-.69-1.21-1.36-2.29-2.02-1.08-.65-2.04-1.17-2.85-1.54-.82-.39-2.17-.96-4.04-1.71-1.88-.76-3.27-1.34-4.17-1.75-3.75-1.63-6.7-3.74-8.83-6.35-2.13-2.61-3.27-5.48-3.42-8.63-.27-5.4,1.52-9.92,5.35-13.56,3.84-3.65,8.32-5.6,13.44-5.85Z"/>
    </g>
  </g>
  <g class="cls-31">
    <g class="cls-29">
      <path class="cls-4" d="m718.1,62.21l-.58-12.1,42.5-2.06.58,12.1-14.38.69,2.33,48.33-13.77.67-2.33-48.33-14.35.71Z"/>
    </g>
  </g>
  <g class="cls-28">
    <g class="cls-24">
      <path class="cls-4" d="m801.76,46.03l.58,12.1-20.81,1,.58,12,19.92-.96.58,12.08-19.92.96.58,12.17,20.81-1,.58,12.08-34.58,1.67-2.92-60.44,34.58-1.67Z"/>
    </g>
  </g>
  <g class="cls-25">
    <g class="cls-26">
      <path class="cls-4" d="m811.86,45.54l21.63-1.04c5.79-.29,10.59,1.03,14.4,3.96,3.8,2.93,5.84,7.27,6.13,13.02.22,4.46-.7,8.24-2.77,11.35-2.07,3.11-4.98,5.37-8.73,6.77l22,23.96-17.5.85-19.6-23,1.15,23.9-13.77.67-2.92-60.44Zm15.06,26.15l1.6-.08c1.28-.05,2.35-.13,3.23-.21.89-.09,1.88-.32,2.98-.67,1.11-.34,1.99-.8,2.65-1.38.65-.57,1.2-1.38,1.65-2.42.44-1.05.63-2.31.56-3.77-.07-1.47-.39-2.71-.94-3.71-.54-1-1.17-1.75-1.88-2.25-.7-.51-1.61-.89-2.75-1.13-1.13-.23-2.14-.35-3.02-.35-.89-.01-1.97.01-3.25.06l-1.6.08.77,15.81Z"/>
    </g>
  </g>
  <g class="cls-27">
    <path class="cls-5" d="m65.24,182.38h777.56v144.88H65.24v-144.88Z"/>
  </g>
  <path class="cls-4" d="m100.24,232.38v6.6h-11.56v6.56h10.69v6.58h-10.69v13.25h-7.52v-33h19.08Z"/>
  <path class="cls-4" d="m123.7,232.38v6.6h-11.35v6.56h10.88v6.58h-10.88v6.65h11.35v6.6h-18.88v-33h18.88Z"/>
  <path class="cls-4" d="m156.31,265.38l-1.56-19.56h-.21l-6.75,19.35h-4.48l-6.77-19.35h-.19l-1.56,19.56h-7.52l2.96-33h8l7.31,19.04,7.33-19.04h8l2.96,33h-7.52Z"/>
  <path class="cls-4" d="m184.61,232.38l13.31,33h-8.08l-2.44-6.6h-12.56l-2.44,6.6h-8.08l13.33-33h6.96Zm.23,19.79l-3.67-9.58h-.08l-3.69,9.58h7.44Z"/>
  <path class="cls-4" d="m212.1,232.38h9.56c4.58,0,8.5,1.57,11.75,4.71,3.26,3.13,4.9,7.05,4.9,11.77s-1.63,8.7-4.88,11.83c-3.24,3.13-7.16,4.69-11.77,4.69h-9.56v-33Zm7.52,26.27h1.17c2.75,0,4.99-.92,6.73-2.77,1.75-1.84,2.64-4.17,2.67-6.98,0-2.8-.88-5.14-2.63-7-1.74-1.86-3.99-2.79-6.77-2.79h-1.17v19.54Z"/>
  <path class="cls-4" d="m261.49,232.38v6.6h-11.35v6.56h10.88v6.58h-10.88v6.65h11.35v6.6h-18.88v-33h18.88Z"/>
  <path class="cls-4" d="m284.37,258.59c1.15,0,2.26-.17,3.33-.52,1.08-.34,1.88-.68,2.4-1l.75-.52,3.21,6.4c-.11.08-.27.2-.46.33-.18.13-.61.37-1.29.73-.68.36-1.41.68-2.19.94-.77.27-1.78.5-3.04.71-1.25.22-2.54.33-3.88.33-3.06,0-5.96-.75-8.71-2.25-2.75-1.51-4.97-3.59-6.65-6.23-1.68-2.64-2.52-5.49-2.52-8.56,0-2.32.49-4.54,1.48-6.67.98-2.14,2.3-3.96,3.94-5.48,1.64-1.53,3.55-2.74,5.73-3.65,2.19-.92,4.44-1.38,6.73-1.38,2.14,0,4.1.26,5.9.77,1.8.5,3.08,1.01,3.83,1.52l1.13.75-3.21,6.4c-.18-.15-.46-.34-.83-.56-.38-.23-1.13-.54-2.25-.92-1.11-.38-2.24-.56-3.4-.56-1.81,0-3.43.3-4.88.9-1.45.58-2.59,1.35-3.44,2.31-.83.96-1.47,1.99-1.92,3.1-.43,1.1-.65,2.22-.65,3.38,0,2.52.94,4.77,2.81,6.75,1.89,1.99,4.57,2.98,8.06,2.98Z"/>
  <path class="cls-4" d="m305.43,232.38v26.4h11.35v6.6h-18.88v-33h7.52Z"/>
  <path class="cls-4" d="m338.27,232.38l13.31,33h-8.08l-2.44-6.6h-12.56l-2.44,6.6h-8.08l13.33-33h6.96Zm.23,19.79l-3.67-9.58h-.08l-3.69,9.58h7.44Z"/>
  <path class="cls-4" d="m353.85,232.38h11.81c3.17,0,5.75.85,7.75,2.54,2,1.7,3,4.11,3,7.25,0,2.43-.61,4.47-1.83,6.1-1.21,1.64-2.85,2.79-4.92,3.46l11.35,13.65h-9.56l-10.08-13.04v13.04h-7.52v-33Zm7.52,14.65h.88c.69,0,1.28-.01,1.75-.04.48-.03,1.03-.11,1.65-.27.63-.17,1.13-.4,1.5-.69s.69-.71.96-1.27c.26-.57.4-1.25.4-2.04s-.14-1.48-.4-2.04c-.27-.57-.58-1-.96-1.29s-.88-.51-1.5-.67c-.61-.17-1.16-.26-1.65-.29-.47-.03-1.06-.04-1.75-.04h-.88v8.65Z"/>
  <path class="cls-4" d="m400.25,232.38l13.31,33h-8.08l-2.44-6.6h-12.56l-2.44,6.6h-8.08l13.33-33h6.96Zm.23,19.79l-3.67-9.58h-.08l-3.69,9.58h7.44Z"/>
  <path class="cls-4" d="m413.74,238.99v-6.6h23.21v6.6h-7.83v26.4h-7.52v-26.4h-7.85Z"/>
  <path class="cls-4" d="m448.18,232.38v33h-7.52v-33h7.52Z"/>
  <path class="cls-4" d="m452.49,248.86c0-4.78,1.63-8.82,4.88-12.13,3.26-3.3,7.19-4.96,11.77-4.96s8.53,1.65,11.75,4.94c3.23,3.29,4.85,7.34,4.85,12.15s-1.59,8.9-4.77,12.19c-3.17,3.29-7.11,4.94-11.83,4.94s-8.82-1.63-11.96-4.9c-3.13-3.28-4.69-7.35-4.69-12.23Zm8.13,0c0,1.74.26,3.32.79,4.75.54,1.42,1.48,2.62,2.81,3.6,1.33.99,2.97,1.48,4.92,1.48,2.79,0,4.9-.96,6.33-2.88,1.43-1.92,2.15-4.23,2.15-6.96s-.73-5.01-2.19-6.94c-1.45-1.93-3.54-2.9-6.29-2.9s-4.83.97-6.31,2.9c-1.47,1.93-2.21,4.24-2.21,6.94Z"/>
  <path class="cls-4" d="m497.56,244.9v20.48h-7.52v-33h7.52l13.13,20.48h.08v-20.48h7.52v33h-7.52l-13.13-20.48h-.08Z"/>
  <path class="cls-4" d="m536.23,231.78c1.79,0,3.53.27,5.23.79,1.71.52,2.98,1.03,3.81,1.54l1.19.79-3.04,6c-.24-.17-.57-.38-1-.63-.42-.25-1.22-.58-2.4-1-1.17-.43-2.26-.65-3.27-.65-1.25,0-2.22.27-2.9.79-.68.53-1.02,1.25-1.02,2.17,0,.45.16.86.48,1.25.32.39.86.81,1.63,1.25.78.43,1.46.79,2.04,1.06.59.27,1.51.66,2.73,1.19,2.14.91,3.96,2.14,5.46,3.71,1.5,1.56,2.25,3.32,2.25,5.29s-.34,3.54-1.02,4.96c-.67,1.42-1.6,2.53-2.79,3.33-1.18.79-2.49,1.39-3.94,1.77-1.45.39-3.01.58-4.69.58-1.43,0-2.84-.15-4.23-.44-1.39-.29-2.55-.66-3.48-1.1-.93-.44-1.77-.88-2.52-1.29-.75-.43-1.3-.79-1.65-1.08l-.52-.44,3.77-6.33c.32.27.76.6,1.31,1.02.55.42,1.55.97,2.98,1.67,1.43.7,2.69,1.04,3.77,1.04,3.18,0,4.77-1.08,4.77-3.25,0-.44-.12-.86-.35-1.25-.22-.39-.62-.78-1.19-1.17-.57-.39-1.08-.69-1.52-.92-.45-.22-1.17-.57-2.17-1.04-1-.47-1.74-.82-2.21-1.06-2-.98-3.55-2.21-4.65-3.69-1.1-1.48-1.65-3.08-1.65-4.79,0-2.96,1.09-5.38,3.27-7.25,2.19-1.89,4.69-2.83,7.5-2.83Z"/>
  <path class="cls-4" d="m575.25,273.82l-4.58,1.96c-.2-.24-.45-.57-.77-1-.32-.43-.89-1.39-1.69-2.85-.79-1.46-1.49-2.99-2.1-4.6-.61-1.61-1.18-3.67-1.69-6.17-.5-2.51-.75-5.06-.75-7.65s.26-5.28.77-7.83c.51-2.57,1.15-4.73,1.9-6.48.75-1.76,1.49-3.34,2.23-4.73.73-1.39,1.35-2.42,1.85-3.08l.79-1,4.6,1.96c-.16.2-.36.47-.63.83-.25.35-.7,1.18-1.33,2.5-.64,1.31-1.22,2.71-1.73,4.21-.5,1.49-.95,3.47-1.35,5.94-.39,2.46-.58,5.02-.58,7.69s.17,4.95.5,7.27c.34,2.32.77,4.23,1.27,5.73.51,1.51,1.01,2.84,1.5,4,.5,1.17.92,2.02,1.27,2.56l.52.75Z"/>
  <path class="cls-4" d="m593.09,238.13c-1.07,0-2.09.53-3.06,1.58-.97,1.06-1.69,2.1-2.15,3.15l-.67,1.56-6.29-3.04c.08-.26.21-.61.4-1.04.19-.43.64-1.19,1.33-2.29.69-1.11,1.46-2.08,2.29-2.92.84-.84,1.99-1.61,3.44-2.31,1.46-.69,3.03-1.04,4.71-1.04,2.15,0,4.03.28,5.65.83,1.63.54,2.88,1.22,3.75,2.04.89.81,1.6,1.77,2.15,2.88.54,1.1.88,2.1,1.02,3.02.15.91.23,1.85.23,2.83,0,1.45-.41,2.96-1.21,4.54-.79,1.58-1.76,3-2.9,4.25-1.13,1.24-2.27,2.37-3.42,3.4-1.14,1.03-2.11,1.82-2.92,2.38l-1.19.83h12.23v6.6h-25.71v-1.88c.44-.38,1.05-.89,1.83-1.54.78-.65,2.14-1.9,4.08-3.73,1.94-1.84,3.66-3.57,5.15-5.19,1.5-1.61,2.86-3.33,4.08-5.17,1.23-1.84,1.85-3.34,1.85-4.5,0-.46-.05-.91-.15-1.35-.1-.46-.28-1.01-.54-1.67-.27-.65-.74-1.19-1.44-1.6-.7-.42-1.55-.63-2.56-.63Z"/>
  <path class="cls-4" d="m610.8,248.9c0-5.44,1.29-9.66,3.88-12.65,2.58-2.98,5.77-4.48,9.56-4.48s6.97,1.49,9.54,4.48c2.57,2.99,3.85,7.2,3.85,12.65,0,2.96-.36,5.56-1.08,7.81-.72,2.24-1.72,4.02-2.98,5.33-1.27,1.32-2.68,2.31-4.25,2.96-1.56.65-3.26.98-5.1.98s-3.53-.33-5.08-.98c-1.56-.65-2.98-1.64-4.27-2.96-1.28-1.32-2.28-3.09-3-5.33-.71-2.25-1.06-4.85-1.06-7.81Zm7.6,0c0,3.49.5,6.1,1.5,7.85,1.01,1.75,2.46,2.63,4.33,2.63s3.26-.88,4.27-2.63c1.01-1.75,1.52-4.36,1.52-7.85s-.52-5.92-1.54-7.75c-1.03-1.84-2.45-2.77-4.27-2.77s-3.23.93-4.27,2.79c-1.03,1.85-1.54,4.43-1.54,7.73Z"/>
  <path class="cls-4" d="m640.91,245.9v-7.44l9.4-6.08h3.56v33h-7.52v-23l-5.44,3.52Z"/>
  <path class="cls-4" d="m658.43,245.9v-7.44l9.4-6.08h3.56v33h-7.52v-23l-5.44,3.52Z"/>
  <path class="cls-4" d="m677.17,250.74h12.88v6.13h-12.88v-6.13Z"/>
  <path class="cls-4" d="m707.97,238.13c-1.07,0-2.09.53-3.06,1.58-.97,1.06-1.69,2.1-2.15,3.15l-.67,1.56-6.29-3.04c.08-.26.21-.61.4-1.04.19-.43.64-1.19,1.33-2.29.69-1.11,1.46-2.08,2.29-2.92.84-.84,1.99-1.61,3.44-2.31,1.46-.69,3.03-1.04,4.71-1.04,2.15,0,4.03.28,5.65.83,1.63.54,2.88,1.22,3.75,2.04.89.81,1.6,1.77,2.15,2.88.54,1.1.88,2.1,1.02,3.02.15.91.23,1.85.23,2.83,0,1.45-.41,2.96-1.21,4.54-.79,1.58-1.76,3-2.9,4.25-1.13,1.24-2.27,2.37-3.42,3.4-1.14,1.03-2.11,1.82-2.92,2.38l-1.19.83h12.23v6.6h-25.71v-1.88c.44-.38,1.05-.89,1.83-1.54.78-.65,2.14-1.9,4.08-3.73,1.94-1.84,3.66-3.57,5.15-5.19,1.5-1.61,2.86-3.33,4.08-5.17,1.23-1.84,1.85-3.34,1.85-4.5,0-.46-.05-.91-.15-1.35-.1-.46-.28-1.01-.54-1.67-.27-.65-.74-1.19-1.44-1.6-.7-.42-1.55-.63-2.56-.63Z"/>
  <path class="cls-4" d="m725.68,248.9c0-5.44,1.29-9.66,3.88-12.65,2.58-2.98,5.77-4.48,9.56-4.48s6.97,1.49,9.54,4.48c2.57,2.99,3.85,7.2,3.85,12.65,0,2.96-.36,5.56-1.08,7.81-.72,2.24-1.72,4.02-2.98,5.33-1.27,1.32-2.68,2.31-4.25,2.96-1.56.65-3.26.98-5.1.98s-3.53-.33-5.08-.98c-1.56-.65-2.98-1.64-4.27-2.96-1.28-1.32-2.28-3.09-3-5.33-.71-2.25-1.06-4.85-1.06-7.81Zm7.6,0c0,3.49.5,6.1,1.5,7.85,1.01,1.75,2.46,2.63,4.33,2.63s3.26-.88,4.27-2.63c1.01-1.75,1.52-4.36,1.52-7.85s-.52-5.92-1.54-7.75c-1.03-1.84-2.45-2.77-4.27-2.77s-3.23.93-4.27,2.79c-1.03,1.85-1.54,4.43-1.54,7.73Z"/>
  <path class="cls-4" d="m769.14,238.13c-1.07,0-2.09.53-3.06,1.58-.97,1.06-1.69,2.1-2.15,3.15l-.67,1.56-6.29-3.04c.08-.26.21-.61.4-1.04.19-.43.64-1.19,1.33-2.29.69-1.11,1.46-2.08,2.29-2.92.84-.84,1.99-1.61,3.44-2.31,1.46-.69,3.03-1.04,4.71-1.04,2.15,0,4.03.28,5.65.83,1.63.54,2.88,1.22,3.75,2.04.89.81,1.6,1.77,2.15,2.88.54,1.1.88,2.1,1.02,3.02.15.91.23,1.85.23,2.83,0,1.45-.41,2.96-1.21,4.54-.79,1.58-1.76,3-2.9,4.25-1.13,1.24-2.27,2.37-3.42,3.4-1.14,1.03-2.11,1.82-2.92,2.38l-1.19.83h12.23v6.6h-25.71v-1.88c.44-.38,1.05-.89,1.83-1.54.78-.65,2.14-1.9,4.08-3.73,1.94-1.84,3.66-3.57,5.15-5.19,1.5-1.61,2.86-3.33,4.08-5.17,1.23-1.84,1.85-3.34,1.85-4.5,0-.46-.05-.91-.15-1.35-.1-.46-.28-1.01-.54-1.67-.27-.65-.74-1.19-1.44-1.6-.7-.42-1.55-.63-2.56-.63Z"/>
  <path class="cls-4" d="m793.94,241.9l-5.94-2.88c.05-.19.14-.46.25-.79.11-.33.43-.91.96-1.73.53-.83,1.15-1.57,1.88-2.21.72-.64,1.78-1.21,3.17-1.73,1.39-.53,2.95-.79,4.69-.79,3.14,0,5.73.91,7.77,2.71,2.04,1.79,3.06,4.09,3.06,6.9,0,2.61-.97,4.68-2.92,6.21,2.79,1.7,4.19,4.21,4.19,7.54,0,3.16-1.16,5.75-3.46,7.79-2.31,2.04-5.23,3.06-8.77,3.06-1.89,0-3.61-.28-5.17-.83-1.54-.57-2.75-1.24-3.63-2.02-.86-.79-1.58-1.58-2.17-2.38-.57-.8-.96-1.49-1.17-2.06l-.27-.83,6.96-3.4c0,.13.01.31.04.54.04.22.18.64.42,1.23.25.58.55,1.1.9,1.54.34.43.88.83,1.58,1.19.71.36,1.53.54,2.46.54,1.42,0,2.56-.39,3.44-1.17.88-.78,1.31-1.84,1.31-3.21s-.46-2.55-1.38-3.46c-.92-.92-2.04-1.38-3.38-1.38l-1.44.25v-4.92h1.65c1.03,0,1.94-.4,2.75-1.21.8-.8,1.21-1.79,1.21-2.96,0-1.04-.41-1.91-1.23-2.6-.82-.69-1.77-1.04-2.85-1.04-.78,0-1.48.14-2.1.42-.63.28-1.1.62-1.44,1.02-.33.41-.62.81-.85,1.21-.22.41-.36.74-.42,1l-.1.44Z"/>
  <path class="cls-4" d="m820.24,275.78l-4.6-1.96c.14-.18.32-.45.54-.81.23-.36.65-1.18,1.23-2.46.58-1.27,1.09-2.62,1.54-4.06.46-1.43.86-3.32,1.23-5.67.36-2.34.54-4.78.54-7.31,0-2.67-.2-5.22-.58-7.67-.38-2.44-.85-4.45-1.42-6.02-.56-1.57-1.11-2.94-1.67-4.1-.54-1.18-1.02-2.04-1.42-2.58l-.56-.79,4.6-1.96c.22.24.5.58.83,1.04s.93,1.45,1.79,2.98c.86,1.53,1.63,3.14,2.29,4.81.67,1.68,1.27,3.82,1.81,6.42.55,2.58.83,5.21.83,7.88s-.24,5.12-.73,7.6c-.47,2.47-1.06,4.55-1.75,6.25-.7,1.69-1.39,3.2-2.06,4.52-.68,1.32-1.26,2.3-1.73,2.94l-.73.96Z"/>
</svg>